<svg xmlns="http://www.w3.org/2000/svg" id="Layer_1" data-name="Layer 1" viewBox="0 0 380.26 390">
  <defs/>
  <defs/>
  <path fill="#fcfcfc" d="M271.28 354.45h20.91v6.63h-20.91z"/>
  <path fill="#ef9736" d="M211.6 488.63c-1.45-.22-3.51.71-4-1.76 1.52-6.84 2.81-13.74 5.38-20.31 1.9-3.27 1.14-7 1.8-10.47-.17-2.53-1.63-3.22-4-3.14-3.45.12-6.92 0-10.38-.08l-2.11 3.05c1.84 2 4.32 1.29 6.56 1.5 2.49.25 3.8 1.38 3 3.91-2.1 6.65-3.44 13.49-5.33 20.19-.78 2.77-2.54 4-5.45 4.1-3.45.08-7-.48-10.35.79-7.39 2.25-14.92 1-22.41.82-.75-.28-1.46-.64-2.23-.86a3 3 0 00-3 .62l-.39 2.76a2.55 2.55 0 002.09 1.8 30.57 30.57 0 004.48.23c9.94-.75 19.9-.23 29.86-.34 2.78 0 4.58.73 3.51 4.13-2 6.49-3.6 13.12-5.29 19.71-.65 2.54-2.06 4.19-4.8 4.21-5.29 0-10.62.67-15.85-.76-1.9-.42-3.51 1.32-5.42.75a21.75 21.75 0 00-4.32.86 121 121 0 01-18.94 0 8.51 8.51 0 00-1.49-.36c-3-.21-4.85-1.45-3.81-4.71a164.57 164.57 0 004.08-16.63V485.2c-1.12.92-1.31 2.26-1.66 3.54q-7.82 28.9-15.64 57.82-3.62 13.44-7.16 26.89c-.33 1.22-1 2.85.67 3.43 2 .66 2-1.32 2.33-2.45 1.25-4.13 2.75-8.23 3.42-12.46.52-3.27 1.92-4 4.91-4 14.83.08 29.66 0 44.49-.08 2.89 0 4.21.75 5 4 1 3.83 1.67 7.21 0 10.95-.51 1.14-1 3.38.71 3.92a9.33 9.33 0 005.68-.1c1.24-.46.59-2.41.2-3.66a20.54 20.54 0 011.2-15c1.11-1 2.33-1.89 2.65-3.48 2.09-10.26 4.33-20.48 8.1-30.29a26.56 26.56 0 001.26-3.71c1.09-7.4 3.15-14.57 4.94-21.81 1.07-4.34 3.15-6.67 7.92-6.34 1.93.13 4.46.63 5.32-2.25-1.52-1.73-3.62-1.19-5.53-1.49zm-84.18 66.12l7.72-29.67 33.59-1 8.08 29.81zm59.42-.38l-5.55.43L171 524.18h22.07z" transform="translate(-52.79 -189.23)"/>
  <path fill="#fcfcfc" d="M290.99 340.85h41.82v9.87h-41.82z"/>
  <path fill="#fcfcfc" d="M389.26 521.13a4.08 4.08 0 01-.32-.58 7.41 7.41 0 00-2.12-3h-65.31V528h65.12a4.66 4.66 0 011.73-2.22 4.61 4.61 0 01.63-1.39 5.1 5.1 0 01.41-1.27 4.91 4.91 0 01-.14-1.99z" transform="translate(-52.79 -189.23)"/>
  <path fill="#fae636" d="M180.93 282.84c1.92-13.62 9.36-24 21.36-29.61 24.16-11.25 47.76-8.52 69.06 7.46 12.82 9.61 16.33 23.81 15.49 39.27-.82.38-1.95.42-2.34-.18-2.77-4.27-7.27-3.52-11.35-4.56a81.9 81.9 0 00-13.21-2.22c-3.21-.27-6.19-.19-8.89 2.14a4.28 4.28 0 01-6-.11c-1.81-1.76 0-3.21 1.07-4.6-2.57-1.33-5.31-1-7.9-.83-2.76.18-5.18.38-7.17-2.12-1-1.26-2.81-1.05-4.22-.48-4.44 1.77-8.89 1.23-13.22-.11-7.15-2.2-14.43-1.79-21.72-1.46-1.59.07-3 .13-4.05-1.16-2.1-1.41-2.39 1.85-4 1.59-1.99-.02-3.84-.18-2.91-3.02z" transform="translate(-52.79 -189.23)"/>
  <path fill="#fae636" d="M215.05 362.93c-1.22-8.11-6.38-14.05-11.2-20.15-6.95-8.83-14.74-17-19.76-27.27-.73-1.48-1.3-3-1.94-4.56 3.14-4 7-1.09 9.91-.25 7.09 2.08 14.33 1.88 21.47 2.91 6.84 4.58 9.85 11.2 10.48 19.21.48 6-.81 11.84-1.9 16.18.54-3.53 2.15-8.36 2-13.58-.22-7.21-1.71-13.71-7-19a28.77 28.77 0 01-6.7-10.39c-1.41-3.77-.19-7.64 2.81-8.5 3.79-1.09 5.74 1.17 7.32 4.3 1.39 2.74 1.39 5.81 2.55 8.55.82 1 1.83 2.7 2.39 0 .49-2.43.15-5 .17-7.47 0-2.32-.12-4.66.12-7 .27-2.62 1.09-5.44 4.18-5.2 2.87.23 2.27 3.25 2.34 5.28.22 6.13-.23 12.26.82 18.59 1.92-3.12 3.09-6.57 4.56-9.86a10.8 10.8 0 012.3-3.8c1.41-1.31 3-2.22 4.94-1.22 1.77.91 1.82 2.53 1.64 4.3-.52 5.23-1.82 10-5.54 14.07-6.11 6.7-9.94 14.38-9.08 23.85.3 3.33-1.05 6.5-1.7 10.14 1-4.3 1.94-8.17 1.78-12.25-.36-9.08 3.6-16.25 10.09-22.25 2.17-.77 4.36-1.9 6.37.39a2 2 0 001.76.75c8.24-1.21 16.16 1.49 24.26 2 1.92.11 4.17.33 4.14 3.21-6.57 9.3-15.77 15.83-24.35 23-6.33 5.31-12.39 10.83-16.23 18.35-3 1.81-6.23 1.34-9.44.65a10.42 10.42 0 00-7.06-1.5c-2.28-.01-4.62.28-6.5-1.48z" transform="translate(-52.79 -189.23)"/>
  <path fill="#fae636" d="M278.64 323.88c-2.28-3.22-6.1-2.4-9-2.6-3.82-.27-7.7-1.8-11.63-.49-1 .35-1.87-.29-2.57-1.07a15.37 15.37 0 00-1.42-1.24c-3.94 5.54-7.28-1.89-11-.52.19-4.68 3.24-8.56 3.58-13.24.16-2.28.62-4.5-2-5.46s-4.13.74-5.33 2.63c-1.41 2.22-2 4.84-3.22 7.18-.53 1-.61 2.42-2.13 2.27-1.79-.17-1.86-1.67-1.86-3 0-3.65.14-7.3.26-10.94.08-2.33 1-6.49-2.22-6.81-3.76-.37-4.08 3.54-4.27 6.61-.43 1.27-.39 2.64-.73 3.92-.61 2.23-1.89 3.06-4.06 1.79a3.44 3.44 0 01-.94-1.14c-1.4-3.17-3.35-5.58-7.22-4.1-3 1.16-3.7 5.16-2.21 9.13.87 2.35 3.59 4.11 2.39 7.14-.19 1.44-.72 1.84-2.34 1.47-8.69-2-17.77-2.11-26.27-5.23-.58-.22-1.51.5-2.29.79-3.67-9.23-4.78-18.57-1.22-28.12.26 2.62 2.26 2.07 3.91 2.16 1.83 1.58 1.25 3.71 1 5.57-.57 3.8-.2 7.6-.28 9.55-.17-3.13.21-8.1.5-13.06.1-1.72.42-3.3 2.24-4.07.76.52.88 1.95 2.21 1.66 8.71-1.89 17.29-.86 25.72 1.47a16.14 16.14 0 0010.65-.51c2.4-.94 4.77-1.39 6.22 1.84 1.81 4 4.88-.13 7.61.6a30.5 30.5 0 008.5 1.52c-.13.64-.1 1.07-.26 1.17-1.34.8-3.41.68-3.67 2.81a1.19 1.19 0 001.21 1.31c1.74.09 3.73.8 4.65-1.61.62-1.6 2.3-1.49 3.43-1.49 6.65 0 13.51-.7 19.55 2.95 1.67 1 2.41.41 3.3-.62 2-2.31 3.67-2.33 4.4.81.68 2.87 2.83 3.92 5 5.06.32 9.03-3.46 16.62-8.19 23.91z" transform="translate(-52.79 -189.23)"/>
  <path fill="#2bc3a5" d="M152.06 397c-1.19-5.32-4.4-9.92-5.36-15.34-1-5.75 4.75-13.33 10.52-13.78 1.37-.11 1.47.8 2.06 1.55 1.69 2.09 1.5 5.1 3.58 7 2.39-.69 3.32 2.34 5.5 2.11.3-3.2.92-6.34.76-9.55-.43-2.61.23-3.87 3.32-3.79a24.6 24.6 0 0111.86 3c8.29 4.77 17.25 6.11 26.58 6.06 1.75 2.55-.07 3.31-2 4-2.32.81-2.68 2.09-1 3.9 1.44 1.22 3.67 2.15 2.14 4.65-1.18 1.92-2.77 3.14-5.28 2.7-4.09-.71-8.52-.17-11.93-3.31-2.53-.06-5.05-.36-7.58-.54 2.19.57 4.45.24 6.66.64 3.39 3.15.72 4.81-1.81 5.59-3.14 1-6.38 2.46-9.63 2.36-8.59-.25-16.62 3.13-25.09 3.44-1.2-.06-2.36.16-3.3-.69z" transform="translate(-52.79 -189.23)"/>
  <path fill="#2d2f7f" d="M207 383.11c-3.19-3.78-2.91-5.2 1.45-6.13 1.76-.37 2.85-.8 2.39-2.81 1.59-1.43 1.15-2.52-.55-3.4-1.35-.7-2.75-1.43-2.25-3.3.54-2 2.35-1.42 3.72-1.52a3.12 3.12 0 003.25-3l6.84.21c1.79 1.59 4.41.17 6.22 1.71l9.95.39c.17 3 3.14 3.07 4.74 4.56.84.78 2.16 1.15 1.85 2.58a2.28 2.28 0 01-2.24 1.65c-1.8.16-3.19.68-3.39 2.83a4 4 0 002.91 4.57c1.06.41 2.2 1 1.92 2.49a2.47 2.47 0 01-2.43 2.08c-1.6.15-3 .54-3.29 2.38s.56 3.15 2.47 3.64a1.86 1.86 0 011.37 2.29c-.18 1.59-1.41 1.79-2.57 1.64-3.67-.47-6.52 1-9.54 3-4.07 2.7-11.05 1.48-13.85-2.67-2.22-3.29-4.85-3.47-8-3.35 2.24-4 6.81-4.42 10.19-6.68a8.59 8.59 0 012.88-.49c3.06.46 6.08 1.27 9 1.27-2.26-.25-4.8-.12-7.06-1.42a3 3 0 01-.55-1.81c-.11-1.4 2.47-3-.08-4.13-2-.85-3.3.72-4.45 2.18a4.19 4.19 0 01-1.6 1.11c-3.05 1.32-6.15 1.02-9.3.13z" transform="translate(-52.79 -189.23)"/>
  <path fill="#4cc4a3" d="M218 387.18c-2.83 2.79-6.78 3.63-10 5.74-5.45 1.6-10.88 3.29-16.36 4.77A30.63 30.63 0 01181 399a6.7 6.7 0 01-5.27 2.31c-5.8.09-11.47 1.3-17.19 2.08-2.81.38-4.85-.06-6.43-2.39v-4c9.43-1.31 18.61-4.18 28.29-4.15 3.27 0 6.42-2.08 9.93-2.29 1.06-.06 4.42-1.71.61-3.6-.39-1.77 1.42-1.13 2-1.83 3.43 2.81 7.85 1.85 11.63 3.1 2.9 1 3.8-.84 4.73-2.25 1.51-2.31-1.87-1.56-2.23-2.86l9.77-.95c1.78 1.33 1.38 3.19 1.16 5.01z" transform="translate(-52.79 -189.23)"/>
  <path fill="#e9739a" d="M383.28 566.76a26.67 26.67 0 016.44 0c3.44.61 4.81 3 4.94 6s-1.61 5.35-4.74 6.19a9.82 9.82 0 01-2.49.15l-66.45-.1a2.39 2.39 0 01.26-3.44c2.15-1.26 4.54-.88 6.84-.89 17.33 0 34.67 0 52-.08 2.06 0 5.73 1.17 5.63-2.08-.09-2.78-3.7-2-5.89-2-17.33-.06-34.66 0-52-.05-2.29 0-4.7.4-6.78-1.1a2 2 0 01.12-2.68c1.76-1.24 3.8-1 5.76-1h50.12c2.15-.08 4.32-.2 6.24 1.08z" transform="translate(-52.79 -189.23)"/>
  <path fill="#ef9736" d="M378.08 497c2.46 1.52 5.2.64 7.8.92 1.52.17 3.83 1.32 2.28 2.53-5.56 4.33-4.46 10.67-5.89 16.25a79.45 79.45 0 01-15.42 0c-1.71-5.39-.42-11.72-5.91-16-1.73-1.35.63-2.61 2.4-2.8 3.21-.36 6.56.85 9.66-.83a2.51 2.51 0 011.6-1 4.28 4.28 0 011.88.19c.52.21.91.86 1.6.74z" transform="translate(-52.79 -189.23)"/>
  <path fill="#e35280" d="M321 576v3c-6.32.06-12.64.17-19 .16-2.38 0-5.7.95-6.44-2.2s-2.15-7.2 1.57-10c6.1-.44 12.22-.72 18.32-1.24 1.93-.16 4.05-.32 5.56 1.46v1.92a6.37 6.37 0 01.81 1.25 7.92 7.92 0 010 4.45 6.39 6.39 0 01-.82 1.2z" transform="translate(-52.79 -189.23)"/>
  <path fill="#6bc59f" d="M152.08 401c3.74 2.87 7.66.41 11.44.2 5.84-.33 11.63-1.43 17.45-2.2-1.09 3-.93 6.11-1.14 9.2-3.81.21-7.44 3-11.41.72-.41-.24-.79-.39-1.24.13-4.4 5.14-10.82 3.36-16.33 4.73z" transform="translate(-52.79 -189.23)"/>
  <path fill="#82ab58" d="M375.12 497l-2.12.05c-.76-6.39-5.57-10.15-9.28-14.7-1.75-2.14-6.51-3.66-3.94-7.31 2.31-3.29 6.42-3.54 10.27-1.76 3.81.65 6.68-2.3 10.22-2.66 1.28 0 1.92 1 2.69 1.81a2 2 0 01.37 1.23c-.29 1-.95 1.95-.9 3.09a14.72 14.72 0 01-2 4.37c-1.95 3.5-2.37 7.43-3.08 11.26-.3 1.81-.43 3.62-2.23 4.62z" transform="translate(-52.79 -189.23)"/>
  <path fill="#f0c551" d="M308 503.15h38.12c2.23 3.36 1.49 7 1 10.64-.34 2.76-2.43 3.21-4.81 3.2h-20.47c-3.17-1.64-6.62-.26-9.88-.91a2.49 2.49 0 01-.08-3.32c6.07-2.46 12.42-.67 18.62-1.23 3-.27 6.23.84 10-1.89-9.76-2.45-18.88.09-27.66-1.68-1.73-1.48-4.05-2.36-4.84-4.81z" transform="translate(-52.79 -189.23)"/>
  <path fill="#dcdcde" d="M385.82 528.77c.93 1.15 2.4 2.32-.78 2.25-5.62-.14-11.24 0-16.86 0-6.12 0-12.25.25-18.35-.07-4.35-.23-6.68.84-5.85 5.64a12.89 12.89 0 010 2.48 36.64 36.64 0 01-22 0 20.38 20.38 0 011.09-8.05c2.8-2.19 6.08-1.08 9.16-1.28 3.78-.25 7.69.58 11.2-1.58 13.19-.14 26.38 0 39.57 0a4.5 4.5 0 012.82.61z" transform="translate(-52.79 -189.23)"/>
  <path fill="#97b95e" d="M380.93 471c-1.94 2.62-6 1.07-8 4.08-.48.73-1.86-1.23-2.92-1.81 2-2.53.64-4.75-.57-7-.91-1.7-1.69-3.45-2.53-5.18a.93.93 0 010-1.35c5.61-2.32 4.62 2.48 5.62 5.33.13.49 1-.34.42 0-.14.08-.31 0-.32-.36-.14-2.85-3.14-6.58 2.34-7.71v9.51c3.21-1.64 5.89-3.05 8.61-4.39a9.41 9.41 0 016.79-.76c3 .84 6.55 1.48 7.56 4.88.93 3.14-1.92 4.95-3.89 6.89-1.71-1.18-3.35-2.63-5.68-1.57-2-.38-3.26 2.24-5.4 1.44-1.65-1.56-.54-4.14-1.91-5.67.62 1.21 1.15 2.45-.12 3.67z" transform="translate(-52.79 -189.23)"/>
  <path fill="#d86a59" d="M389.32 519.3a4.4 4.4 0 01-1.09-1.3c-1.54-1.26-3.73-1.35-6-1.28a39.62 39.62 0 00-15.42 0l-11.67-.07c-2.69-1.56-2.94-4.08-3-6.87 0-2.35.76-5.14-2.18-6.59h-3.9a52.74 52.74 0 00-.1 7.43c.51 4.39-1.1 5.64-5.51 5.6-6.2-.05-12.5-1.16-18.63.76l.21.13c1.93.8 3.95.29 5.93.39 6.29.33 12.62-.58 18.89.48 11.61.07 23.21.18 34.81.19 3.4 0 7 .43 6.84 4.52-.1 3.59-3.35 4.26-6.69 4.23-11.6-.09-23.21 0-34.81 0-1.47.24-3.17-.3-4.23 1.29v.66l43-.11c2.73-2 5.28-4.23 4.08-8.12a6 6 0 00-.53-1.34z" transform="translate(-52.79 -189.23)"/>
  <path fill="#b3cd63" d="M367 460c0 .36 0 .72-.05 1.09a52.23 52.23 0 01-7.67-10.89c-2.42-4.8-1.68-7.91 2.25-10.24 3.05-1.81 7.52-.66 10 2.88s4 7.62 3.47 12.16c-.91.75-1.32 1.94-2.23 2.65s-2.13.86-2.17-.6c-.05-2.46-3.2-4.66-.63-7.33.12-.12.45-.23.28-.54-.9.83-1.79 1.69-2.74.05-.33.41.13.65.27.89a45.87 45.87 0 012.06 4.51c1.38 3.07.69 4.96-2.84 5.37z" transform="translate(-52.79 -189.23)"/>
  <path fill="#e1dfe0" d="M311 562.85c1.54-2.58.15-5.2.08-7.8a2.48 2.48 0 011.62-1.06c8.69-.34 17.39-1.24 26 .48 2 3.23 1.08 6.18-.87 9-8.99 1.11-17.98 2.29-26.83-.62z" transform="translate(-52.79 -189.23)"/>
  <path fill="#ef9736" d="M433.05 220c-3.86 1.85-6.83 3.55-7.28 8.25-.3 3.11-2.77 1-3.4 0-1.59-2.48-3.7-2.51-6.08-2.09-2.91.53-4.48 0-2.43-3.14a6.25 6.25 0 00-.09-7.44c-1.37-2.07-.44-2.93 1.56-2.41 4.15 1.08 7.42.16 10.06-5 1.02 5.92 2.1 10.36 7.66 11.83zM74.58 360.28c-6.62.77-8.42 4.37-8.72 10.25-3.63-4.46-7.36-6.81-13.07-5.56 3.79-4.26 3.63-8.34.47-13 4.52 1.48 8.35 1.74 11.16-2.45.62-.92 2.67-.8 2.41.9-.83 5.35 3.17 6.99 7.75 9.86z" transform="translate(-52.79 -189.23)"/>
  <path fill="#dd5f56" d="M91.72 204.69c2.47 3.8 4.85 6.34 9.21 5.36 1.29-.28 2.56.74 1.32 2.07-3.23 3.49-1.66 7 .25 11.32-5.09-.92-9.75-2.43-13 3-.48-4.81-.38-8.71-5.19-10.1-1.21-.35-1.42-2.52-.07-2.64 5.27-.49 5.12-5.36 7.48-9.01zm290.33 165.84c5 5.36 5 5.36 11.65 5.76-1.19 4-5 8 1 12.95-6-.6-10.22-2.07-13.25 2.12-.75 1-1.63-.54-1.61-1.51.1-3.65-1-6.35-4.8-7.67a1.3 1.3 0 01.29-2.54c5.48-.54 5.8-4.96 6.72-9.11z" transform="translate(-52.79 -189.23)"/>
  <path fill="#e4dbcd" d="M323.92 550.83c0-1.53.31-2.19 2.29-2 3.93.38 7.92.12 11.88.21 2.08 0 3.09-.81 2.88-2.95-.23-2.3-1.6-1.92-3.21-1.52-3.73.92-7.56.24-11.34.42a2.25 2.25 0 01-2.58-1.77c1.29-1.74 3.21-1.58 5-1.59q22.69-.09 45.4 0c1.8 0 3.73-.11 4.93 1.71-1.3 2.78-3.94 2.06-6.1 2.12-6.65.17-13.31 0-20 .08-1.91 0-3.93-.25-5.81 1.4 1.76 1.91 3.83 1.51 5.7 1.51 7.65 0 15.31.18 23-.11 1.46-.06 3-.42 4.23.84-.93 3.49-3.82 3.18-6.42 3.2-10.25.07-20.5 0-30.76 0h-13.69c-1.9-.04-3.97.26-5.4-1.55z" transform="translate(-52.79 -189.23)"/>
  <path fill="#ef9736" d="M170 293.21c-5.47.26-10.88-.49-16.35-1.22-13.61-1.81-27.27-3.3-40.9-4.95-2.69-.33-7.48-.07-7.06-2.62.5-3 4.47-.21 6.85 0 12.51 1.33 25 2.93 37.47 4.49 6.69.83 13.36 1.77 20 2.66zm109.07-36.57l57.67-36c.39.62.77 1.24 1.15 1.86l-57.77 36.14z" transform="translate(-52.79 -189.23)"/>
  <path fill="#92dfd2" d="M311 562.85h27.08c2-1.65 4.39-1.37 6.69-1.38 10.66 0 21.32-.08 32 .09 3.94.07 6.94-.88 7.34-5.46a3 3 0 011.18-1.34c3.36 3.94 2.68 7.16-2.14 10.27-1.62 1.2-3.5.91-5.31.91h-39.43a9.83 9.83 0 01-1.87-.21c-7.12-.8-14.26-.15-21.39-.37-2.14-.06-4.37.24-6.12-1.46z" transform="translate(-52.79 -189.23)"/>
  <path fill="#84a958" d="M387.9 471c2.89-1.66 5.22-1.71 6.16 2.17-3.3 3.7-6.57 7.43-9.92 11.09a23.82 23.82 0 00-6.06 12.8c-.41.54-.81.63-1.21 0-1.05-6 1.32-11.42 3.1-16.93l2-3.94c1.61-2.19 2.91-4.71 5.93-5.19z" transform="translate(-52.79 -189.23)"/>
  <path fill="#ef9736" d="M215 239.65l-12-50 1.79-.45c5.08 16.41 8.14 33.32 12.42 49.93z" transform="translate(-52.79 -189.23)"/>
  <path fill="#9a969a" d="M321 567.11l-23.89-.22c2.21-1.66 4.75-.45 7.09-.85 1.5-.26 3.31.85 4.47-1a167.71 167.71 0 0128.08-.13l.41.2c13.45.87 26.92.13 40.38.41 1.78 0 3.66-.54 5.36.53a2 2 0 01.35.69z" transform="translate(-52.79 -189.23)"/>
  <path fill="#e4c78c" d="M378.89 544c-.91-1.4-2.37-1-3.63-1q-25.71.06-51.42.19l-1-.91a2.36 2.36 0 011.21-1.16c6.16-1.26 12.46.22 18.64-.91a5.44 5.44 0 011.8 0c10 .66 20.09.08 30.13.31 1.77 0 3.63-.52 5.31.51-.11 1.75 1.49 2.49 2.2 3.74.93 1.65 1.82 3.41-.92 4.33l-.56-.35c-.87-1.46-2.19-2.75-1.76-4.75z" transform="translate(-52.79 -189.23)"/>
  <path fill="#ef9736" d="M296 286c6.36-1 12.12-2.27 18-2.8 5.28-.47 10.58-.63 15.75-1.95.95-.25 2.2-.32 2.56.86s-.81 1.66-1.77 1.77q-16.49 1.9-33 3.68c-.21.01-.45-.44-1.54-1.56z" transform="translate(-52.79 -189.23)"/>
  <path fill="#91d9cc" d="M338.84 554.92l-27.8.13-1.17-.93c5.84-2.39 12-.54 18-1.46 2.91-.45 5.94.19 8.88-.5 2.18-.26 4.38-.11 6.57-.16 12.27-.11 24.54.23 36.81-.18 1.78.85 4.26.52 5.08 3a3.42 3.42 0 00-.42.43c-4 1.79-8.15.15-12.23.22-9.28.14-18.55 0-27.83.06a18.33 18.33 0 01-5.89-.61z" transform="translate(-52.79 -189.23)"/>
  <path fill="#e9b02d" d="M304.17 516.31c-3.91.56-7.21.4-7.29-4.92-.12-7.4.37-8.19 6.08-8.19a4 4 0 01.9 1.21c.79 3.44.26 6.95.43 10.42-.05.49-.1.99-.12 1.48z" transform="translate(-52.79 -189.23)"/>
  <path fill="#d6cb69" d="M380.14 551.82c-.88 1.3-2.22 1.21-3.55 1.21l-33.6-.14a1.15 1.15 0 010-1.81q15.66 0 31.32-.05c2.09 0 4.42.5 5.69-2a.57.57 0 01.89-.17l.29.23c-.33.91-.68 1.83-1.04 2.73z" transform="translate(-52.79 -189.23)"/>
  <path fill="#eaa68e" d="M166.09 353.89c1.2 3.72 1.48 7.31-1 10.73-.51.69-.17 2.18-1.54 2-1.1-.11-1.46-1.22-1.69-2.21-.42-1.79-1.06-3.44-2.88-4.3-2-2.77-1-5 1.58-6.5 1.73-.99 3.84-2.97 5.53.28z" transform="translate(-52.79 -189.23)"/>
  <path fill="#35223b" d="M166.09 353.89c-4.41-1.1-7.52 1.64-7.12 6.26-4.48-2.91-1.67-6.67-.45-9.52s4.62-3.93 8-3.64a2.53 2.53 0 012.54 2.48c.27 2.3-.82 3.73-2.97 4.42z" transform="translate(-52.79 -189.23)"/>
  <path fill="#f2cb52" d="M355.18 516.64c-3.26.42-4.62-.73-4.37-4.28.22-3 .78-6.24-.77-9.18 5.6 0 8.41 4.28 6.5 9.89-.41 1.2-1.7 2.08-1.36 3.57z" transform="translate(-52.79 -189.23)"/>
  <path fill="#c6b9ea" d="M379.92 541.05l-37.05-.15c-6.63.21-13.27.07-19.9.07-1.46 0-3.05.27-4.11-1.18L322 539h22c2 1.16 4.16.93 6.31.93h35.29c-2.11 1.7-4 .74-5.68 1.12z" transform="translate(-52.79 -189.23)"/>
  <path fill="#ef9736" d="M265.8 216.37a248.32 248.32 0 01-15.1 22.88l-1.7-1.08q7.51-11.38 15-22.77z" transform="translate(-52.79 -189.23)"/>
  <path fill="#e9aa33" d="M308 503.15c1.28 1.32 4.56.4 4.08 3.67A21.69 21.69 0 01312 513v3a9.25 9.25 0 01-6.1.12l-.09-.77c-.15-3.66-.45-7.33.27-11a5.59 5.59 0 01.9-1.3z" transform="translate(-52.79 -189.23)"/>
  <path fill="#6c58a2" d="M342.82 528.88c-.77 2.44-2.83 1.77-4.53 1.81-5.07.11-10.15.16-15.22.23-2.57-.39-5.5 1.31-8-1.54 2.39-1 4.64-.37 6.8-.56 7-1.77 14-2.09 20.95 0z" transform="translate(-52.79 -189.23)"/>
  <path fill="#c5dc8a" d="M367 460c3.81-1.75 2.7-4.47 1.37-7.17-1-2-2.08-4-3.4-6.45 4 3 4 3 7.61-.46-2.19 4.35-3.42 7.8-1 11.33 1.44-.09 1.57-2.54 3.41-2.25v2c-3.87 2.26-1.11 6.24-2.32 9.33-2.13-2.02-.44-7.33-5.67-6.33z" transform="translate(-52.79 -189.23)"/>
  <path fill="#ef9736" d="M182.3 258.72l-16-14.08c-.49-.43-1.09-.92-.57-1.64a1.33 1.33 0 012.13-.32q7.49 6.82 14.89 13.74c.45.43.47 1.23-.45 2.3z" transform="translate(-52.79 -189.23)"/>
  <path fill="#b2326e" d="M342.83 528.82h-20.95c0-1.36.49-2.23 2-2.1 7.72-.2 15.44-.62 23.15.22-.9 1.68-3.1.54-4.2 1.88z" transform="translate(-52.79 -189.23)"/>
  <path fill="#c8b9c0" d="M382.92 566.07c-13.53 0-27.06 0-40.59-.09-1.73 0-3.66.7-5.16-.86h45.91c-.08.28-.08.62-.16.95z" transform="translate(-52.79 -189.23)"/>
  <path fill="#ef9736" d="M309 331l-17.15-10.94c4.43-.82 15.15 5.75 17.15 10.94z" transform="translate(-52.79 -189.23)"/>
  <path fill="#56b19c" d="M336.88 553.12c-4.78 1.86-9.75.54-14.62.83-4.12.25-8.26.13-12.39.17-2.44-1.29-1.77-2 .47-2.08 4.12-.13 8.24-.09 12.36-.12 4.7.75 9.63-1.19 14.18 1.2z" transform="translate(-52.79 -189.23)"/>
  <path fill="#c5aa62" d="M336.88 553.12c-4.69-.84-9.61 1-14.18-1.2l1.22-1.09 19.09.25v1.81z" transform="translate(-52.79 -189.23)"/>
  <path fill="#ef9736" d="M172.05 321.45c-4.7 3.9-10.37 5.78-16 7.67l-.57-1.18 15.9-8z" transform="translate(-52.79 -189.23)"/>
  <path fill="#7a6aa2" d="M318.86 539.79c6.46 0 12.91 0 19.36.13 1.59 0 3.36-.54 4.65 1l-.35.16c-6.47 1.14-13-.18-19.5.69a1 1 0 00-.19.55c-2.29-1.4-5.23.26-7.58-1.43 1.02-1.6 2.46-.81 3.61-1.1z" transform="translate(-52.79 -189.23)"/>
  <path fill="#d8888d" d="M168.76 380.75c-2.55-.67-3.66-3.28-5.9-4.37 1.21-1.28.48-3 .92-4.45 1.07-3.58 1.59.26 2.36.08 3.04 2.26 3.09 5.42 2.62 8.74z" transform="translate(-52.79 -189.23)"/>
  <path fill="#40b29b" d="M336.77 564.93l-28.08.13c-.69-.56-.36-.89.27-1.13 7.74 0 15.48 0 23.21.05 1.56.02 3.34-.65 4.6.95z" transform="translate(-52.79 -189.23)"/>
  <path fill="#fa8a49" d="M307 503.12v.73c-1.29 3.89.06 7.95-.75 11.87a4.7 4.7 0 01-.34.44l-1.75.15a3.21 3.21 0 01-.34-.48c-1-3.87.47-7.91-.8-11.76 0-.29 0-.58-.07-.87z" transform="translate(-52.79 -189.23)"/>
  <path fill="#cddfd2" d="M168.76 380.75c-.87-2.92-1.75-5.83-2.62-8.74 2 0 2.68-1.38 3-3.07 1.11 3.97 2.09 7.94-.38 11.81z" transform="translate(-52.79 -189.23)"/>
  <path fill="#a32855" d="M322.11 517.08c6.9 0 13.79-.07 20.69 0 1.42 0 3-.47 4.14.91q-11.46.12-22.9.22c-.81-.03-1.68-.07-1.93-1.13z" transform="translate(-52.79 -189.23)"/>
  <path fill="#d86a59" d="M347.06 526.94l-23.16-.22c7.73-.87 15.46-1.34 23.16.22z" transform="translate(-52.79 -189.23)"/>
  <path fill="#fff" d="M216.67 253c-3.9 2.55-7.12 3.72-10 5.41a33.69 33.69 0 00-13.9 14.35c-.53 1.06-1 3-2.75 1.87-1.44-.93.16-2.05.56-3 3.99-9.46 16.42-18.82 26.09-18.63zm-28.4 30c-2 5.64-1.13 11.47-1.26 17.24 0 2.06.62 4.28-1.3 6.47-3.71-7.42-.41-14.64-.87-21.7.33-1.42.61-3 2-3.62 1.08-.39 1.03.98 1.43 1.61z" transform="translate(-52.79 -189.23)"/>
  <path fill="#3c273c" d="M162.81 487.6c2.61-1.5 2.37-4.78 4.22-6.76l10.09.15c1.86 4.23 6.24 4.46 9.72 6.12 0 .94-.42 1.56-1.48 1.55-7.14-.05-14.28-.09-21.43-.19-.38 0-.75-.56-1.12-.87z" transform="translate(-52.79 -189.23)"/>
  <path fill="#ef9736" d="M180 456.25h-15c.13-1.21-.13-2.54 1.08-3.41 5 1 10.24-.76 15.19 1.1z" transform="translate(-52.79 -189.23)"/>
  <path fill="#80c7dd" d="M199.31 447.29a52 52 0 01-12.44 16.07l11.93-16.54zm-.51-.47a22 22 0 014.9-7.92 18.14 18.14 0 01-4.39 8.39z" transform="translate(-52.79 -189.23)"/>
  <path fill="#f0a450" d="M160 480.76c.73 2.05 2.43 3.79 1.93 6.22h-2.88c.07-2.11-.45-4.32.95-6.22z" transform="translate(-52.79 -189.23)"/>
  <path fill="#8ccce8" d="M177.73 474.18l4.57-5.18c-.14 2.79-2.07 4.22-4.57 5.18z" transform="translate(-52.79 -189.23)"/>
  <path fill="#2d2f7f" d="M224.73 297c.38-3.57 1.05-8.15 5.37-7.44s4 5.59 3.46 9.16a27.5 27.5 0 00.57 12c1.17-2.7 2.32-5.4 3.51-8.09 1.4-3.13 3.53-5.78 7.23-4.45 3.42 1.24 3.28 4.51 2.68 7.65-.81 4.31-2.75 8.16-4.57 12.07-6.54 6.18-10.46 13.49-10 22.77.29 5.48-1.86 10.57-2.45 16.86-2.15-2.52-1.51-4.46-1.19-6.27A84.77 84.77 0 00231 337c.06-7.77 4.37-13.73 9.06-19.41a23.19 23.19 0 005.25-13.66c.1-1.53.73-3.09-1.25-3.72-1.8-.57-2.86.76-3.62 2-2.32 3.84-3.6 8.13-5.09 12.32-.56 1.58-.84 3.63-3 3.27-2-.34-1.48-2.41-1.48-3.79 0-6.32.23-12.65.22-19 0-1.26.77-3.5-1.52-3.44-1.44 0-2.49 1.55-2.53 3.26-.06 2.67-.13 5.33-.15 8 0 2.33.11 4.67.06 7 0 1.79.15 4.2-2 4.59s-2.1-2.13-2.88-3.49a3.54 3.54 0 01.91-1.78c1.32-3.92 1.42-8.03 1.75-12.15z" transform="translate(-52.79 -189.23)"/>
  <path fill="#2d2f7f" d="M223 309.93c-.31.34-.63.68-.94 1-1-3.08-2.12-6.15-3.1-9.24-.85-2.68-2.78-3.85-5.32-3.23s-3 3.09-2.52 5.28a20.62 20.62 0 005.46 10.36c9 9.34 10 20.43 7 32.29-.66 2.56.41 5.74-2.34 8-1.05-3.79.21-7.11.85-10.49 2.19-11.58.93-22.11-9.11-30-.72-3.57-4.17-5.94-4.11-9.94.05-3.41.37-6.48 4.21-7.51s5.95.91 7.25 4.25a8.82 8.82 0 00.79 1.26c1.38 2.51 4.34 4.61 1.88 7.97z" transform="translate(-52.79 -189.23)"/>
  <path fill="#d5d09d" d="M228.11 364.85c-2.17-.24-4.87 1.49-6.22-1.71 2.11.3 4.87-1.51 6.22 1.71z" transform="translate(-52.79 -189.23)"/>
  <path fill="#fae636" d="M223 309.93c.59-2.93-1.77-5.17-1.85-7.94 1.57.95 2.74 1.09 2.79-1.3 0-1.25-.31-2.6.75-3.65q.09 5.7.19 11.39c.12 1.34-.06 2.46-1.88 1.5z" transform="translate(-52.79 -189.23)"/>
  <path fill="#e5f8f4" d="M192.9 385.12l-2 1.83c-2 .15-3.95.22-5.9.49-1.5.22-2.72.21-2.7-1.71s1.43-2 2.81-1.79c2.59.35 5.19.78 7.79 1.18z" transform="translate(-52.79 -189.23)"/>
  <path fill="#eeb19a" d="M218 387.18c-1.19-1.48-.79-3.35-1.18-5 1.91-.82.13-5.64 4.94-3.86 3.46 1.28 4.25 1.21 2.26 4.53a4.35 4.35 0 00-.93 2.16c-.4 1-1.49 1.25-2.15 2z" transform="translate(-52.79 -189.23)"/>
  <path fill="#fff" d="M214.66 371.81c7.06 1.46 14.37.83 22.23 2.77a41.54 41.54 0 01-22.23-2.77zm6.26 15.19a2 2 0 012.15-2c3.86 2.12 8.33.11 13.44 1.82-5.96 2.65-10.79-.42-15.59.18z" transform="translate(-52.79 -189.23)"/>
  <path fill="#f792b3" d="M321 576a3.62 3.62 0 010-.93c2.23-2 5-1.59 7.6-1.6h47.89c1.94 0 4 .38 6.19-.86-1.94-1.29-3.89-.93-5.71-.94h-48.38c-2.63 0-5.38.37-7.62-1.58a3.78 3.78 0 010-1h62.85c2.6-.13 4 .83 4.14 3.68.14 3.23-1.74 3.35-4.14 3.34q-31.35-.16-62.82-.11z" transform="translate(-52.79 -189.23)"/>
  <path fill="#fbce96" d="M382.36 502.09c-3.38 1.51-6.86.59-10.78 1 2.74-2.48 5.17-2.71 10.78-1z" transform="translate(-52.79 -189.23)"/>
  <path fill="#a7ce91" d="M380 480.08c-.59 5.73-3.35 11.05-3.1 16.93h-1.75c.83-4.1 1.59-8.22 2.53-12.29.32-1.72.65-3.52 2.32-4.64z" transform="translate(-52.79 -189.23)"/>
  <path fill="#e9759a" d="M321 570q30.15 0 60.3.06c1.94 0 4.8-.93 4.6 2.71-.18 3.25-2.83 2.21-4.57 2.21-20.1.08-40.2.07-60.3.08z" transform="translate(-52.79 -189.23)"/>
  <path fill="#aad08d" d="M373.81 492c-2.66-4-1.53-8.41-1.35-12.76.68 4.16.34 8.46 1.35 12.76z" transform="translate(-52.79 -189.23)"/>
  <path fill="#b6d888" d="M387.9 471l-5.9 5.18c-1.36-1.58 1.05-2 1-3.14 1.89-.04 2.12-4.14 4.9-2.04z" transform="translate(-52.79 -189.23)"/>
  <path fill="#b5d58e" d="M380.93 471v-4.32c2.18 2 2 4.2 2.08 6.32a1.92 1.92 0 01-2.08-2z" transform="translate(-52.79 -189.23)"/>
  <path fill="#f25b48" d="M312 513a4.57 4.57 0 01.06-6.18c8.62.06 17.24.1 25.86.19 1.92 0 4.08-.49 4.18 2.71s-2 3.21-4.24 3.21c-8.58 0-17.2.07-25.86.07z" transform="translate(-52.79 -189.23)"/>
  <path fill="#fbfdfc" d="M338.84 554.92c1.6-1.32 3.51-.77 5.29-.77 11.94 0 23.88 0 35.83.13a25.73 25.73 0 014.84 1c.66 7.7.54 7.88-7.28 7.87-13.16 0-26.32-.13-39.48-.21-.33-2.77.36-5.38.8-8.02z" transform="translate(-52.79 -189.23)"/>
  <path fill="#fdfdf7" d="M380.91 548.89a5.38 5.38 0 00-.89.17c-10.86 2-21.81.54-32.72.89-2.06.07-2.26-1.42-2.32-3.05-.1-2.62 1.48-2.91 3.54-2.91h30.37c1.23 1.42 2.35 2.86 2.02 4.9z" transform="translate(-52.79 -189.23)"/>
  <path fill="#b16e5a" d="M323 541.75c6.45-1.62 13-.37 19.5-.69-6.42 2.13-12.97.83-19.5.69z" transform="translate(-52.79 -189.23)"/>
  <path fill="#d5581f" d="M303 504.07c2 3.8.67 7.83.8 11.76-1.71-3.83-.39-7.83-.8-11.76z" transform="translate(-52.79 -189.23)"/>
  <path fill="#c4600b" d="M306.26 515.72c0-4-1.23-8 .75-11.87-.31 3.95.99 8-.75 11.87z" transform="translate(-52.79 -189.23)"/>
  <path fill="#2d2f7f" d="M142.81 485.2c1-21.89 2.75-43.7 6.32-65.33.34-2.08.43-4.27 1.72-6.1a11.44 11.44 0 015.07-2 78.48 78.48 0 0010.82-3.19 23.45 23.45 0 0113.09-.42c7.73 1.49 15.41 3.06 22.52 6.71 9.84 5.06 11.94 10.48 7.69 20.67-2.55 6.13-6.25 11.63-9.65 17.3.33 1.67-.91 2.64-1.68 3.83a203.17 203.17 0 01-17.92 21.68c-1.34 1.43-2.67 2.95-4.65 3.58a16.61 16.61 0 01-8.6-.24c-2.37-2.14-.4-3.91.6-5.64 3.81-6.62 7.49-13.31 10.94-20.12.44-.88.91-1.75 1.4-2.61a102.32 102.32 0 006.34-14.09c1.34-4 .34-5.18-3.93-4.85a48.75 48.75 0 00-9.23 2.09c-2.17.61-3.1 2.27-3.8 4.26-1.39 3.94-1.83 8.11-3 12.11-.34 1.22-.63 2.46-.89 3.7-2.23 7.95-3.53 16.08-5 24.18-.78 2-.57 4.18-.67 6.3a13 13 0 01-.46 3.28c-1.85 6.26-2.26 12.77-3.41 19.15-.41 2.29-.53 4.67-2.71 6.18-3.34 1.1-6.64 1.37-9.88-.34-2.77-5.17-2.11-10.81-2.28-16.34a51.45 51.45 0 011.25-13.75z" transform="translate(-52.79 -189.23)"/>
  <path fill="#ef9736" d="M212 465.66c2-2.89.33-6.83 2.79-9.57q10.2 37.68 20.42 75.35c3.61 13.24 7.32 26.45 11 39.68a11.17 11.17 0 01.48 1.41c.21 1.56 1.24 3.74-.84 4.33s-2.38-1.77-2.78-3.28c-1-3.69-2.12-7.37-2.76-11.12-.61-3.52-2.4-4.53-5.82-4.51-15.83.11-31.66 0-47.48 0a3.2 3.2 0 012-3c1.77-2.08 4.12-1.69 6.46-1.61 11.62.4 23.24.33 34.86 0 5.43-.14 5.63-.51 4.24-6-1.47-5.79-3.44-11.46-4.7-17.3-.73-3.37-2.6-4.67-5.94-4.65-7 0-14 .07-20.92 0-2.1 0-4.38.35-6-1.56 0-1.13-.09-2.31 1.14-3 2.66-2 5.76-1.19 8.68-1.27 5.15-.13 10.3 0 15.45-.07 2.13 0 4.49-.46 3.69-3.28-2.51-8.86-3-18.45-8.84-26.17-2.73-.05-5.47-.18-8.2-.13-2.44 0-3.1-1.17-2.77-3.33 2.26-1.44 4.79-1 7.21-1 3.37 0 4.42-1.25 3.47-4.54a158.44 158.44 0 00-4.84-15.38z" transform="translate(-52.79 -189.23)"/>
  <path fill="#fff" d="M160.7 441.63q-4.39 33.74-8.8 67.46l-1.46-.18q4.41-33.74 8.83-67.46z" transform="translate(-52.79 -189.23)"/>
  <path fill="#342240" d="M142.79 521c.46-2.06.93-4.11 1.39-6.17H154c2.08 3.55 6 4.37 9.28 6-6.67 1.24-13.37.72-20.07.27z" transform="translate(-52.79 -189.23)"/>
  <path fill="#f0a450" d="M164 491c2 7.76 4 15.52 6.07 23.25a14.08 14.08 0 01.91 4.79c-.37 2.69-1.84 1.35-3.09.84q-3.56-14.33-7.13-28.65c.99-1.69 2.14-.68 3.24-.23z" transform="translate(-52.79 -189.23)"/>
  <path fill="#331712" d="M143.22 521.11l20.07-.27 1 .25c-5.8 2.52-11.9.59-17.83 1.11-1.04.1-2.72.9-3.24-1.09z" transform="translate(-52.79 -189.23)"/>
  <path fill="#f0a14c" d="M172.89 525l7.35 27.74c-.86 1-1.63 2.31-3.28 1.23q-4.07-15-8.11-29.9a6 6 0 014.04.93z" transform="translate(-52.79 -189.23)"/>
</svg>
