<svg xmlns="http://www.w3.org/2000/svg" xmlns:xlink="http://www.w3.org/1999/xlink" version="1.1" x="0px" y="0px" viewBox="0 0 512 512" enable-background="new 0 0 512 512" xml:space="preserve" fill="#8448ff"><g><path d="M149,110.2h156.3c7.8,0,14.1-6.3,14.1-14.1S313,82,305.3,82H149c-7.8,0-14.1,6.3-14.1,14.1S141.2,110.2,149,110.2z"/><path d="M72.5,190.1h232.7c7.8,0,14.1-6.3,14.1-14.1s-6.3-14.1-14.1-14.1H72.5c-7.8,0-14.1,6.3-14.1,14.1S64.7,190.1,72.5,190.1z"/><path d="M72.5,270.1h232.7c7.8,0,14.1-6.3,14.1-14.1c0-7.8-6.3-14.1-14.1-14.1H72.5c-7.8,0-14.1,6.3-14.1,14.1   C58.4,263.8,64.7,270.1,72.5,270.1z"/><path d="M203.3,321.8H72.5c-7.8,0-14.1,6.3-14.1,14.1c0,7.8,6.3,14.1,14.1,14.1h130.7c7.8,0,14.1-6.3,14.1-14.1   C217.4,328.1,211.1,321.8,203.3,321.8z"/><path d="M203.3,401.7H72.5c-7.8,0-14.1,6.3-14.1,14.1c0,7.8,6.3,14.1,14.1,14.1h130.7c7.8,0,14.1-6.3,14.1-14.1   C217.4,408,211.1,401.7,203.3,401.7z"/><path d="M499.5,196L479.5,176c-15.4-13.9-34.9-13.8-49.9,0l-53.9,53.9V44.4c0-23.3-19-42.3-42.3-42.3H109C97.7,2.1,87,6.5,79,14.5   L14.4,79.1C6.4,87.1,2,97.7,2,109v358.6c0,23.3,19,42.3,42.3,42.3h289.1c23.3,0,42.3-19,42.3-42.3v-98l123.7-123.7   C513.9,231,513.2,209.2,499.5,196z M83.1,50.3v32.9H50.2L83.1,50.3z M347.6,467.6c0,7.8-6.3,14.1-14.1,14.1H44.3   c-7.8,0-14.1-6.3-14.1-14.1V111.4h67c7.8,0,14.1-6.3,14.1-14.1v-67h222.1c7.8,0,14.1,6.3,14.1,14.1v213.7L249.7,356   c-2.6,2.6-4.1,6.2-4.1,10v49.9c0,7.8,6.3,14.1,14.1,14.1h49.9c3.7,0,7.3-1.5,10-4.1l28-28V467.6z M303.7,401.7h-29.9v-29.9   l137.7-137.8l29.9,29.9L303.7,401.7z M479.5,225.9L461.4,244l-29.9-29.9l18.1-18.1c3.6-2.9,6.9-2.6,10,0l19.9,19.9   C482.1,217.8,482.6,223.4,479.5,225.9z"/></g></svg>