<svg xmlns="http://www.w3.org/2000/svg" 
    xmlns:xlink="http://www.w3.org/1999/xlink" version="1.1" x="0px" y="0px" viewBox="0 0 512 512" enable-background="new 0 0 512 512" xml:space="preserve">
    <linearGradient id="myGradient" gradientTransform="rotate(65)">
      <stop offset="0%"  stop-color="#f8d930" />
      <stop offset="50%" stop-color="#f29d3b" />
      <stop offset="100%"  stop-color="#e26d52" />
    </linearGradient>
    <g fill="url('#myGradient')">
        <path d="M215.1,269.8h-15.7v-29.5c0-15.1-8.5-28.8-22.1-35.8c-38-19.4-85.4-19.4-123.3,0c-13.6,7-22.1,20.7-22.1,35.8v29.5H16.1   c-8.4,0.5-16.2,7.6-13.6,17.8l37.3,137.1h-7.4c-7.8,0-14.1,6.3-14.1,14.1c0,7.8,6.3,14.1,14.1,14.1h166.3c7.8,0,14.1-6.3,14.1-14.1   c0-7.8-6.3-14.1-14.1-14.1h-7.4l37.3-137.1C231.3,277.9,223.5,270.2,215.1,269.8z M60,240.4c0-4.4,2.6-8.5,6.7-10.6   c30.1-15.4,67.6-15.4,97.6,0c4.2,2.1,6.7,6.2,6.7,10.6v29.5H60V240.4z M162.1,424.8h-93L34.6,298.1h162L162.1,424.8z"/>
        <path d="M115.6,176.8c25.6,0,46.3-20.8,46.3-46.3c0-25.6-20.8-46.3-46.3-46.3c-25.6,0-46.3,20.8-46.3,46.3   C69.3,156,90.1,176.8,115.6,176.8z M115.6,112.3c10,0,18.1,8.1,18.1,18.1s-8.1,18.1-18.1,18.1c-10,0-18.1-8.1-18.1-18.1   S105.6,112.3,115.6,112.3z"/>
        <path d="M373.1,350.2c0,24.8,20.2,45.1,45.1,45.1s45.1-20.2,45.1-45.1c0-24.8-20.2-45.1-45.1-45.1S373.1,325.3,373.1,350.2z    M435,350.2c0,9.3-7.6,16.8-16.8,16.8c-9.3,0-16.8-7.6-16.8-16.8c0-9.3,7.6-16.8,16.8-16.8C427.5,333.3,435,340.9,435,350.2z"/>
        <path d="M509.9,493.7c-1.2-49.6-41.8-89.5-91.7-89.5c-50.6,0-91.7,41.2-91.7,91.7c0,7.8,6.3,14.1,14.1,14.1h155.2   c0.1,0,0.1,0,0.1,0C506.6,509.9,510.8,501,509.9,493.7z M356.2,481.7c6.4-28.2,31.8-49.4,61.9-49.4c30.2,0,55.5,21.2,61.9,49.4   H356.2z"/>
        <path d="M381.2,277.2c8.4,6.1,22.6,3,23.1-10.2l1.3-25.8h8.5c7.8,0,14.1-6.3,14.1-14.1v-68.8c0-7.8-6.3-14.1-14.1-14.1H291.9   c-7.8,0-14.1,6.3-14.1,14.1v68.8c0,7.8,6.3,14.1,14.1,14.1h45.7L381.2,277.2z M306,172.5h94v40.6h-7.8c-7.5,0-13.7,5.9-14.1,13.4   l-0.6,11.2l-25.9-21.3c-2.5-2.1-5.7-3.2-9-3.2H306V172.5z"/>
        <path d="M321.6,85V16.2c0-7.8-6.3-14.1-14.1-14.1H185.3c-7.8,0-14.1,6.3-14.1,14.1V85c0,7.8,6.3,14.1,14.1,14.1h8.5l1.3,25.8   c0.9,10.4,12.4,17.9,23.1,10.2l43.6-35.9h45.7C315.3,99.1,321.6,92.7,321.6,85z M293.4,70.9h-36.7c-3.3,0-6.4,1.1-9,3.2l-25.9,21.3   l-0.6-11.2c-0.4-7.5-6.6-13.4-14.1-13.4h-7.8V30.3h94V70.9z"/>
    </g>
</svg>