<svg xmlns:svg="http://www.w3.org/2000/svg" 
    xmlns="http://www.w3.org/2000/svg" version="1.1" x="0px" y="0px" viewBox="0 0 32 32" style="enable-background:new 0 0 32 32;" xml:space="preserve">
     <linearGradient id="myGradient" gradientTransform="rotate(65)">
      <stop offset="0%"  stop-color="#f8d930" />
      <stop offset="50%" stop-color="#f29d3b" />
      <stop offset="100%"  stop-color="#e26d52" />
    </linearGradient>
    <path style="" d="M 16 3 C 12.416 3 9.5 5.916 9.5 9.5 C 9.5 13.084 12.416 16 16 16 C 19.584 16 22.5 13.084 22.5 9.5 C 22.5 5.916 19.584 3 16 3 z M 16 4 C 19.033 4 21.5 6.467 21.5 9.5 C 21.5 12.533 19.033 15 16 15 C 12.967 15 10.5 12.533 10.5 9.5 C 10.5 6.467 12.967 4 16 4 z M 14 5.9921875 C 13.724 5.9921875 13.5 6.2161875 13.5 6.4921875 C 13.5 6.7681875 13.724 6.9921875 14 6.9921875 L 15 6.9921875 C 15.657 6.9921875 16.209109 7.4188125 16.412109 8.0078125 L 14 8.0078125 C 13.724 8.0078125 13.5 8.2318125 13.5 8.5078125 C 13.5 8.7838125 13.724 9.0078125 14 9.0078125 L 16.402344 9.0078125 C 16.191344 9.5808125 15.645 9.9921875 15 9.9921875 L 14 9.9921875 C 13.724 9.9921875 13.5 10.216188 13.5 10.492188 C 13.5 10.495188 13.500953 10.497 13.501953 10.5 C 13.499953 10.631 13.546484 10.762328 13.646484 10.861328 L 16.646484 13.861328 C 16.744484 13.959328 16.873953 14.007813 17.001953 14.007812 C 17.129953 14.007812 17.257469 13.958328 17.355469 13.861328 C 17.550469 13.666328 17.550469 13.349297 17.355469 13.154297 L 15.175781 10.974609 C 16.297781 10.895609 17.219313 10.083812 17.445312 9.0078125 L 18 9.0078125 C 18.276 9.0078125 18.5 8.7838125 18.5 8.5078125 C 18.5 8.2318125 18.276 8.0078125 18 8.0078125 L 17.451172 8.0078125 C 17.376172 7.6298125 17.210328 7.2862344 16.986328 6.9902344 L 18 6.9902344 L 18 6.9921875 C 18.276 6.9921875 18.5 6.7681875 18.5 6.4921875 C 18.5 6.2161875 18.276 5.9921875 18 5.9921875 L 15 5.9921875 L 14 5.9921875 z M 5 7 C 3.897 7 3 7.897 3 9 L 3 16.5 L 3 17.5 C 3 18.908 3.6737813 20.254563 4.8007812 21.101562 L 6.8007812 22.601562 C 6.9257812 22.694562 7 22.844 7 23 L 7 24 L 5.5 24 C 5.224 24 5 24.224 5 24.5 L 5 28.5 C 5 28.776 5.224 29 5.5 29 L 14.5 29 C 14.776 29 15 28.776 15 28.5 L 15 24.5 C 15 24.224 14.776 24 14.5 24 L 14 24 L 14 19.779297 C 14 18.714297 13.523359 17.719734 12.693359 17.052734 L 8.9765625 14.060547 C 8.4015625 13.598547 7.646 13.514672 7 13.763672 L 7 9 C 7 7.897 6.103 7 5 7 z M 27 7 C 25.897 7 25 7.897 25 9 L 25 13.763672 C 24.355 13.513672 23.600437 13.597547 23.023438 14.060547 L 19.304688 17.054688 C 18.475687 17.721688 18 18.714297 18 19.779297 L 18 24 L 17.5 24 C 17.224 24 17 24.224 17 24.5 L 17 28.5 C 17 28.776 17.224 29 17.5 29 L 26.5 29 C 26.776 29 27 28.776 27 28.5 L 27 24.5 C 27 24.224 26.776 24 26.5 24 L 25 24 L 25 23 C 25 22.844 25.074219 22.694562 25.199219 22.601562 L 27.199219 21.101562 C 28.326219 20.254563 29 18.909 29 17.5 L 29 16.5 L 29 9 C 29 7.897 28.103 7 27 7 z M 5 8 C 5.551 8 6 8.449 6 9 L 6 14.5 C 6 14.532 6.0115781 14.559844 6.0175781 14.589844 C 5.5085781 15.432844 5.68175 16.541781 6.46875 17.175781 L 9.8125 19.867188 C 9.9315 19.964187 10 20.106766 10 20.259766 L 10 20.490234 C 10 20.766234 10.224 20.990234 10.5 20.990234 C 10.776 20.990234 11 20.766234 11 20.490234 L 11 20.257812 C 10.999 19.801812 10.794453 19.376844 10.439453 19.089844 L 7.0957031 16.398438 C 6.6667031 16.052437 6.5973594 15.422188 6.9433594 14.992188 C 7.2903594 14.563187 7.9196094 14.494844 8.3496094 14.839844 L 12.068359 17.832031 C 12.660359 18.309031 13 19.019297 13 19.779297 L 13 24 L 8 24 L 8 23 C 8 22.53 7.7763906 22.082781 7.4003906 21.800781 L 5.4003906 20.300781 C 4.5233906 19.643781 4 18.596 4 17.5 L 4 16.5 L 4 9 C 4 8.449 4.449 8 5 8 z M 27 8 C 27.551 8 28 8.449 28 9 L 28 16.5 L 28 17.5 C 28 18.596 27.476609 19.643781 26.599609 20.300781 L 24.599609 21.800781 C 24.223609 22.082781 24 22.53 24 23 L 24 24 L 19 24 L 19 19.779297 C 19 19.018297 19.340594 18.308031 19.933594 17.832031 L 23.650391 14.839844 C 24.080391 14.494844 24.711641 14.561234 25.056641 14.990234 C 25.402641 15.420234 25.333297 16.051484 24.904297 16.396484 L 21.558594 19.089844 C 21.204594 19.375844 21.001 19.800812 21 20.257812 L 21 20.488281 C 21 20.764281 21.224 20.988281 21.5 20.988281 C 21.776 20.988281 22 20.764281 22 20.488281 L 22 20.259766 C 22 20.106766 22.0685 19.962187 22.1875 19.867188 L 25.53125 17.175781 C 26.31825 16.541781 26.491422 15.432844 25.982422 14.589844 C 25.988422 14.560844 26 14.532 26 14.5 L 26 9 C 26 8.449 26.449 8 27 8 z M 6 25 L 7.5 25 L 13.5 25 L 14 25 L 14 28 L 6 28 L 6 25 z M 18 25 L 18.5 25 L 24.5 25 L 26 25 L 26 28 L 18 28 L 18 25 z M 12.5 26 A 0.5 0.5 0 0 0 12 26.5 A 0.5 0.5 0 0 0 12.5 27 A 0.5 0.5 0 0 0 13 26.5 A 0.5 0.5 0 0 0 12.5 26 z M 19.5 26 A 0.5 0.5 0 0 0 19 26.5 A 0.5 0.5 0 0 0 19.5 27 A 0.5 0.5 0 0 0 20 26.5 A 0.5 0.5 0 0 0 19.5 26 z " fill="url('#myGradient')" stroke="url('#myGradient')" stroke-width="0.5px" />
</svg>