<svg id="Layer_1" data-name="Layer 1" xmlns="http://www.w3.org/2000/svg" viewBox="0 0 1000 1000">
  <title>SCC_logo</title>
  <path d="M122.46,331.07c3-21.23,13.76-64.08,41.54-109.23C224.42,123.65,323.74,88.69,357.85,77.23,493.34,31.7,611.71,74.87,650.16,91.07,688.91,107.4,787.44,147.91,844,254.15c11.22,21.07,39.27,75.12,38.46,144.61-.38,33.14-.8,69.4-16.92,109.23-4.64,11.47-9.46,30.28-11.61,52-1.57,15.81,22.39,110.91,19.3,166.47-.8,14.53-14.8,34-34.8,26.53-21.19-7.94-36.94-6.63-43.66,5.77-5.09,9.4,6.89,16.83,1.54,30.77-4.09,10.67-12,8.75-18.46,23.08-2.81,6.25-3.63,11.8-9.23,15.38-2.72,1.75-3.39,1-9.69,3-6.94,2.22-14.28,4.57-18.5,10.5-2.1,3-2.6,5.62-3.5,10.5-1.66,8.91-.29,13.48,0,22.5a88.52,88.52,0,0,1-2.5,25.5c-1.5,5.65-3.63,13.72-9,20-8,9.34-20.29,11.4-34,12.5-31.88,2.58-58.48-1-74.5-3.5-34.58-5.35-36.15-8-60.5-10-9.14-.72-20.93-1-44.5-1.5-23.3-.5-35.11-.73-42.5.5-21.62,3.62-25.19,10.17-38.5,8-16.2-2.63-26.45-14.85-29.5-18.5-17-20.25-13.62-45.4-13-50,2.31-17.28,10.69-28.51,21.5-43,2.63-3.52,14.25-18.8,37.5-36.5,11.89-9,28.77-20.22,57.5-33,35.21-15.66,45.83-14.88,75.5-26,22.4-8.39,58.8-22,93.5-53,39.1-34.9,56.36-74.24,63.5-91a284.17,284.17,0,0,0,19.5-72c2.38-17.46,7.08-54.4-3.5-99.5-15.66-66.67-54.64-108.12-68.5-122.5s-45-46-97-65c-65-23.79-121.26-12.76-144-8-22,4.62-80.08,17.6-132,68-50.59,49.11-65.39,104.65-68,115-11.58,45.89-7,89.72-5,105,2.75,20.63,16.49,63.88,8,161-2.34,26.67-19.67,57.34-51,66-16.39,4.54-30.59-.84-36-3-4.6-1.83-18.52-7.6-28-22-13.68-20.75-8.88-45.35-7-55a156.47,156.47,0,0,1,4-17C144.59,549,103.93,463,122.46,331.07Z" fill="#fff"/>
  <rect x="167.62" y="855.45" width="134.89" height="28" rx="14" transform="translate(530.67 18.68) rotate(34.29)" fill="#fff"/>
  <rect x="162.83" y="894.24" width="87.84" height="28" rx="14" transform="translate(547.61 41.37) rotate(34.29)" fill="#fff"/>
  <path d="M401.43,907.49c-17-20.25-13.62-45.4-13-50,2.31-17.28,10.69-28.51,21.5-43,2.63-3.52,14.25-18.8,37.5-36.5,11.89-9,28.77-20.22,57.5-33,35.21-15.66,45.83-14.88,75.5-26,22.4-8.39,58.8-22,93.5-53,39.1-34.9,56.36-74.24,63.5-91a284.17,284.17,0,0,0,19.5-72c2.38-17.46,7.08-54.4-3.5-99.5A248.61,248.61,0,0,0,736.1,354s22.91,38.6,29.83,68c22.05,93.8-8.22,170.48-16,189C738.07,639.2,693,723.89,623.35,748.52c-82,29-144.92,44.47-208.94,139C410,894.06,403.63,899,395.75,899h-.19" fill="#ededed" opacity="0.5"/>
  <path d="M604.67,558.48h0a70.18,70.18,0,0,0-27.55-34.15h0a38.72,38.72,0,0,0-31.38-4.8h0a63,63,0,0,0-31.87,20.79l-50.13,61.27a16.36,16.36,0,0,1-21.5,3.41l-28-18a16.37,16.37,0,0,1-5.61-21.46l34.06-64c.61-1.16,1.21-2.43,1.79-3.78a64.13,64.13,0,0,0-5.16-59.59c-4-6.33-8.36-12.27-11.77-14.63-55.42-38.3-115.38,18.87-102,84.36a102.41,102.41,0,0,0,11.11,29.5L353.82,567a28.41,28.41,0,0,1-.56,29.51L242.54,770.94A8.73,8.73,0,0,1,230,773.28l-12.08-9a14.13,14.13,0,1,0-16.57,22.89l130.33,92a14.13,14.13,0,0,0,19.18-2.72l2.2-2.74a14.14,14.14,0,0,0-3-20.47l-12.28-8.45a8.72,8.72,0,0,1-2.25-12.14L450.8,664.91a28.44,28.44,0,0,1,29.95-11.56c29.25,6.85,86.63,12,119-40.46A62,62,0,0,0,604.67,558.48Zm-247.8-40a61.33,61.33,0,0,1-6.66-17.7c-8-39.3,27.94-73.6,61.19-50.62,3.43,2.37,8.44,10.78,11.44,16.21A21.77,21.77,0,0,1,425.49,479a52.94,52.94,0,0,1-5,17.95l-24.68,46.4-14.57,26.06Zm46.64,159.38L314.44,809a15.11,15.11,0,0,1-21.1,3.84l-15.9-11.12a14.66,14.66,0,0,1-3.82-20.26L362.1,650.1a15.09,15.09,0,0,1,21-4l16.49,11.3A14.68,14.68,0,0,1,403.51,677.82Zm174-71.27c-19.41,31.46-53.84,28.38-71.39,24.27l-30.45-13.05c-.18,0,.15.1,0,0h0c4.65,1.29,17.2-14.29,20.24-18L526,563a37.7,37.7,0,0,1,19.12-12.47,23.21,23.21,0,0,1,18.83,2.88h0a42.14,42.14,0,0,1,16.53,20.48h0A37.23,37.23,0,0,1,577.47,606.55Z" fill="#fff"/>
</svg>
