<svg xmlns="http://www.w3.org/2000/svg" xmlns:xlink="http://www.w3.org/1999/xlink" version="1.1" x="0px" y="0px" viewBox="0 0 512 512" enable-background="new 0 0 512 512" xml:space="preserve" fill="#8448ff">
    <linearGradient id="myGradient" gradientTransform="rotate(65)">
        <stop offset="0%"  stop-color="#f8d930" />
        <stop offset="50%" stop-color="#f29d3b" />
        <stop offset="100%"  stop-color="#e26d52" />
        </linearGradient>
    <g fill="url('#myGradient')">
        <path d="M181.7,510H58.4C27.3,510,2,484.7,2,453.6V330.4c0-31.1,25.3-56.4,56.4-56.4h123.2c31.1,0,56.4,25.3,56.4,56.4v123.2   C238.1,484.7,212.8,510,181.7,510z M58.4,302.2c-15.6,0-28.2,12.7-28.2,28.2v123.2c0,15.6,12.7,28.2,28.2,28.2h123.2   c15.6,0,28.2-12.7,28.2-28.2V330.4c0-15.6-12.7-28.2-28.2-28.2H58.4z"/>
        <path d="M453.6,510H330.3c-31.1,0-56.4-25.3-56.4-56.4V330.4c0-31.1,25.3-56.4,56.4-56.4h123.2c31.1,0,56.4,25.3,56.4,56.4v123.2   C510,484.7,484.7,510,453.6,510z M330.3,302.2c-15.6,0-28.2,12.7-28.2,28.2v123.2c0,15.6,12.7,28.2,28.2,28.2h123.2   c15.6,0,28.2-12.7,28.2-28.2V330.4c0-15.6-12.7-28.2-28.2-28.2H330.3z"/>
        <path d="M309.2,170c2.8,7.6-2.3,14.8-10,14.8c-4.3,0-8.3-2.6-10-6.9l-8.1-20.2h-50.2l-8.2,20.2c-1.7,4.3-5.7,6.9-10,6.9   c-8.1,0-13-5.8-10-14.8l43.2-108c1.7-4.1,5.7-6.9,10.2-6.9c4.3,0,8.3,2.8,10,6.9L309.2,170z M272.4,136.3L256.1,95l-16.5,41.3   H272.4z"/>
        <path d="M317.6,2H194.4C163.3,2,138,27.3,138,58.4v123.2c0,31.1,25.3,56.4,56.4,56.4h123.2c31.1,0,56.4-25.3,56.4-56.4V58.4   C374,27.3,348.7,2,317.6,2z M345.8,181.6c0,15.6-12.7,28.2-28.2,28.2H194.4c-15.6,0-28.2-12.7-28.2-28.2V58.4   c0-15.6,12.7-28.2,28.2-28.2h123.2c15.6,0,28.2,12.7,28.2,28.2V181.6z"/>
        <path d="M146.6,382.7c3.7-5.6,5.7-12.6,5.7-20.4c0.4-21.5-15.2-34.4-35-35.2H87.5c-5.9,0-10.7,4.8-10.7,10.7V446   c0,5.9,4.8,10.7,10.7,10.7h37.8c17.4,0,38-15.6,38-40.6C163.3,401.6,157.4,389.7,146.6,382.7z M98.5,348.8h18.9   c0,0,13.5,1.1,13.5,13.5c0,13-13.5,13.5-16.3,13.5H98.5V348.8z M124,435.1H98.5v-37.8H124c13.3,0,17.4,12,17.6,18.9   C142.2,435,124.2,435.1,124,435.1z"/>
        <path d="M441.4,434.4c2.8,5.2,0.7,11.7-4.4,14.6c-9.4,5-20,7.8-30.9,7.8c-35.7,0-64.8-29.1-64.8-64.8c0-35.7,29.1-64.8,64.8-64.8   c10.9,0,21.5,2.8,30.9,7.8c5.2,3,7.2,9.4,4.4,14.6c-3,5.4-9.4,7.2-14.8,4.4c-6.1-3.5-13.3-5.2-20.6-5.2   c-23.7,0-43.2,19.3-43.2,43.2c0,23.9,19.4,43.2,43.2,43.2c7.2,0,14.4-1.7,20.6-5.2C432,427.2,438.5,429,441.4,434.4z"/>
    </g>
</svg>