<svg xmlns="http://www.w3.org/2000/svg" xmlns:xlink="http://www.w3.org/1999/xlink" version="1.1" x="0px" y="0px" viewBox="0 0 512 512" enable-background="new 0 0 512 512" xml:space="preserve">
    <linearGradient id="myGradient" gradientTransform="rotate(65)">
      <stop offset="0%"  stop-color="#f8d930" />
      <stop offset="50%" stop-color="#f29d3b" />
      <stop offset="100%"  stop-color="#e26d52" />
    </linearGradient>
    <g fill="url('#myGradient')">
        <path d="M96.5,168.1c29.2,0,52.9-23.7,52.9-52.9s-23.7-52.9-52.9-52.9S43.6,86,43.6,115.2S67.3,168.1,96.5,168.1z M96.5,90.5   c13.6,0,24.7,11.1,24.7,24.7s-11.1,24.7-24.7,24.7s-24.7-11.1-24.7-24.7S82.9,90.5,96.5,90.5z"/>
        <path d="M467.7,2H247c-23.3,0-42.3,19-42.3,42.3v134.2c0,23.3,19,42.3,42.3,42.3H292L254,397.8c-1.6,7.6,3.2,15.1,10.8,16.8   c7.6,1.7,15.1-3.2,16.8-10.8l9.2-42.8h133.1l9.2,42.8c1.6,7.6,9.1,12.5,16.8,10.8c7.6-1.6,12.5-9.1,10.8-16.8l-38.1-176.9h45.1   c23.3,0,42.3-19,42.3-42.3V44.3C510,21,491,2,467.7,2z M296.8,332.7l24.1-111.8h72.8l24.1,111.8H296.8z M481.8,178.5   c0,7.8-6.3,14.1-14.1,14.1H247c-7.8,0-14.1-6.3-14.1-14.1V44.3c0-7.8,6.3-14.1,14.1-14.1h220.7c7.8,0,14.1,6.3,14.1,14.1V178.5z"/>
        <path d="M439.4,127.8h-92.1c-7.8,0-14.1,6.3-14.1,14.1s6.3,14.1,14.1,14.1h92.1c7.8,0,14.1-6.3,14.1-14.1S447.2,127.8,439.4,127.8z   "/>
        <path d="M439.4,66.9H298.1c-7.8,0-14.1,6.3-14.1,14.1s6.3,14.1,14.1,14.1h141.4c7.8,0,14.1-6.3,14.1-14.1S447.2,66.9,439.4,66.9z"/>
        <path d="M131.7,189.3c-5.4,0-10.3,3-12.7,7.9l-22.6,45.6l-22.6-45.6c-2.4-4.8-7.3-7.9-12.6-7.9C28.6,189.3,2,215.9,2,248.6v97   c0,17.3,10.5,32.2,25.4,38.8v111.6c0,7.8,6.3,14.1,14.1,14.1h109.9c7.8,0,14.1-6.3,14.1-14.1V384.3c15-6.5,25.5-21.5,25.5-38.8v-97   C191,215.9,164.4,189.3,131.7,189.3z M137.3,481.8h-26.7v-70c0-7.8-6.3-14.1-14.1-14.1s-14.1,6.3-14.1,14.1v70H55.7v-93.9h81.7   V481.8z M162.8,345.5c0,7.8-6.3,14.1-14.1,14.1H44.3c-7.8,0-14.1-6.3-14.1-14.1v-97c0-14.3,9.7-26.3,22.8-29.9l30.8,62.2   c2.4,4.8,7.3,7.9,12.6,7.9s10.3-3,12.7-7.9l30.8-62.2c13.2,3.6,22.9,15.7,22.9,30V345.5z"/>
    </g>
</svg>