<svg id="Layer_1" data-name="Layer 1" xmlns="http://www.w3.org/2000/svg" xmlns:xlink="http://www.w3.org/1999/xlink" viewBox="0 0 1000 1000">
  <defs>
    <linearGradient id="linear-gradient" x1="221.13" y1="790.71" x2="809.64" y2="202.2" gradientUnits="userSpaceOnUse">
      <stop offset="0" stop-color="#dd5f56"/>
      <stop offset="0.55" stop-color="#ef9736"/>
      <stop offset="0.71" stop-color="#ef9936"/>
      <stop offset="0.79" stop-color="#f1a235"/>
      <stop offset="0.86" stop-color="#f3b033"/>
      <stop offset="0.92" stop-color="#f7c430"/>
      <stop offset="0.98" stop-color="#fbdd2d"/>
      <stop offset="1" stop-color="#fde92b"/>
    </linearGradient>
  </defs>
  <title>SCC_logo</title>
  <path d="M133.38,521.27c0-198.83,118.29-360,317.13-360s360,161.19,360,360-161.18,360-360,360S133.38,720.11,133.38,521.27Z" fill="#fae533"/>
  <path d="M122.47,333c3-21.24,13.76-64.09,41.53-109.24C224.42,125.62,323.75,90.65,357.85,79.19,493.34,33.66,611.71,76.83,650.16,93,688.91,109.37,787.44,149.87,844,256.11c11.22,21.07,39.27,75.13,38.47,144.62-.39,33.13-.81,69.39-16.93,109.23-4.64,11.47-9.45,30.27-11.61,52-1.57,15.8,22.39,110.9,19.3,166.46-.8,14.54-14.8,34-34.8,26.54-21.19-8-36.94-6.64-43.66,5.77-5.09,9.39,6.89,16.82,1.54,30.77-4.09,10.66-12,8.74-18.46,23.07-2.81,6.25-3.63,11.8-9.23,15.39-2.72,1.74-3.39,1-9.69,3-6.94,2.22-14.28,4.56-18.5,10.5-2.1,2.95-2.6,5.61-3.5,10.5-1.66,8.91-.29,13.47,0,22.5a88.57,88.57,0,0,1-2.5,25.5c-1.5,5.64-3.63,13.72-9,20-8,9.34-20.29,11.39-34,12.5-31.88,2.57-58.48-1-74.5-3.5-34.58-5.36-36.15-8.06-60.5-10-9.14-.73-20.92-1-44.5-1.5-23.3-.51-35.1-.74-42.5.5-21.62,3.61-25.19,10.17-38.5,8-16.2-2.64-26.45-14.86-29.5-18.5-17-20.26-13.62-45.41-13-50,2.31-17.29,10.69-28.51,21.5-43,2.63-3.53,14.25-18.8,37.5-36.5,11.89-9.06,28.77-20.23,57.5-33,35.21-15.66,45.83-14.89,75.5-26,22.4-8.4,58.8-22,93.5-53,39.11-34.9,56.36-74.24,63.5-91a284.31,284.31,0,0,0,19.5-72c2.38-17.47,7.09-54.41-3.5-99.5-15.66-66.68-54.64-108.13-68.5-122.5s-45-46-97-65c-65-23.8-121.26-12.77-144-8-22,4.62-80.08,17.59-132,68-50.59,49.1-65.39,104.64-68,115-11.58,45.89-7,89.71-5,105,2.75,20.62,16.5,63.87,8,161-2.34,26.66-19.67,57.33-51,66-16.39,4.53-30.59-.84-36-3-4.6-1.84-18.52-7.61-28-22-13.68-20.75-8.88-45.36-7-55a158.84,158.84,0,0,1,4-17C144.59,551,103.93,465,122.47,333Z" fill="url(#linear-gradient)"/>
  <rect x="167.62" y="857.42" width="134.89" height="28" rx="14" transform="translate(531.78 19.02) rotate(34.29)" fill="#2d2f7f"/>
  <rect x="162.83" y="896.21" width="87.84" height="28" rx="14" transform="translate(548.71 41.71) rotate(34.29)" fill="#2d2f7f"/>
  <path d="M401.43,909.46c-17-20.26-13.62-45.41-13-50,2.31-17.29,10.69-28.51,21.5-43,2.63-3.53,14.25-18.8,37.5-36.5,11.89-9.06,28.77-20.23,57.5-33,35.21-15.66,45.83-14.89,75.5-26,22.4-8.4,58.8-22,93.5-53,39.11-34.9,56.36-74.24,63.5-91a284.31,284.31,0,0,0,19.5-72c2.38-17.47,7.09-54.41-3.5-99.5A248.8,248.8,0,0,0,736.11,356s22.9,38.59,29.82,68c22.05,93.79-8.21,170.47-16,189C738.07,641.17,693,725.85,623.36,750.49c-82,29-144.93,44.47-208.95,139C410,896,403.63,901,395.75,901h-.19" fill="#dd5f56" opacity="0.5"/>
  <path d="M604.67,560.44h0a70.15,70.15,0,0,0-27.55-34.14h0a38.64,38.64,0,0,0-31.38-4.8h0a62.94,62.94,0,0,0-31.87,20.78l-50.13,61.28a16.37,16.37,0,0,1-21.5,3.41l-28-18a16.36,16.36,0,0,1-5.62-21.46l34.06-64c.61-1.16,1.21-2.42,1.79-3.77a64.12,64.12,0,0,0-5.16-59.6c-4-6.33-8.36-12.27-11.77-14.62-55.42-38.3-115.38,18.86-102,84.35a102.61,102.61,0,0,0,11.12,29.51l17.18,29.54a28.41,28.41,0,0,1-.56,29.51L242.54,772.9A8.73,8.73,0,0,1,230,775.24l-12.08-9a14.13,14.13,0,1,0-16.57,22.9l130.33,92a14.12,14.12,0,0,0,19.18-2.71l2.2-2.75a14.13,14.13,0,0,0-3-20.47l-12.28-8.44a8.74,8.74,0,0,1-2.25-12.15L450.8,666.87a28.46,28.46,0,0,1,29.95-11.55c29.25,6.84,86.64,12,119-40.46A62,62,0,0,0,604.67,560.44Zm-247.8-40a61.11,61.11,0,0,1-6.66-17.7c-8-39.29,27.94-73.6,61.19-50.62,3.43,2.38,8.44,10.78,11.44,16.21a21.7,21.7,0,0,1,2.65,12.64,52.94,52.94,0,0,1-5,17.95l-24.68,46.4-14.57,26.06Zm46.64,159.38L314.44,811a15.1,15.1,0,0,1-21.1,3.84l-15.9-11.12a14.67,14.67,0,0,1-3.82-20.26L362.1,652.06a15.08,15.08,0,0,1,21-4l16.49,11.29A14.68,14.68,0,0,1,403.51,679.78Zm174-71.27c-19.41,31.46-53.84,28.38-71.39,24.27l-30.45-13c-.18-.05.15.1,0,0h0c4.65,1.3,17.2-14.28,20.24-18L526,565a37.76,37.76,0,0,1,19.12-12.47,23.25,23.25,0,0,1,18.83,2.88h0a42.12,42.12,0,0,1,16.53,20.49h0A37.21,37.21,0,0,1,577.47,608.51Z" fill="#2d2f7f"/>
</svg>
